<svg fill="none" height="180" viewBox="0 0 180 180" width="180" xmlns="http://www.w3.org/2000/svg"><path d="m62.5557 91.1359c1.5092-.4044 2.2665-1.5779 2.2717-3.5204l.4229-6.1187 10.6403-2.8511 3.5389 5.0572c.9758 1.6797 2.1994 2.3224 3.6709 1.9281.9811-.2629 1.6511-.7053 2.0102-1.3272.3867-.6698.4587-1.4575.2161-2.3631-.1213-.4527-.4014-1.045-.8401-1.7767l-14.492-20.8058c-1.4569-2.1169-3.3362-2.867-5.6378-2.2503-2.1507.5763-3.3277 2.1453-3.5309 4.7071l-2.1476 25.2644c-.072.7876-.0373 1.4456.1043 1.9738.2426.9056.6988 1.5517 1.3686 1.9384.6597.349 1.4612.3971 2.4045.1443zm2.7377-14.6855.6639-12.9167.3396-.0909 7.0899 10.839zm24.8918-15.7689 17.2618-4.6254c1.019-.2729 1.758-.8349 2.218-1.686.497-.8611.614-1.7822.351-2.7632s-.82-1.7013-1.671-2.1607c-.823-.5073-1.744-.6245-2.763-.3515l-17.2621 4.6254c-1.0564.2831-1.8333.8552-2.3305 1.7163-.4695.8133-.5729 1.7105-.31 2.6915.2628.981.806 1.7252 1.6294 2.2325.8612.4972 1.82.6042 2.8764.3211zm5.2927 19.7525 17.2621-4.6254c1.019-.273 1.758-.835 2.217-1.686.498-.8612.615-1.7823.352-2.7633s-.82-1.7012-1.671-2.1607c-.823-.5073-1.745-.6245-2.763-.3515l-17.2624 4.6254c-1.0565.2831-1.8333.8552-2.3305 1.7163-.4696.8134-.5729 1.7105-.3101 2.6915.2629.981.806 1.7252 1.6295 2.2325.8611.4972 1.8199.6042 2.8764.3212zm-24.1334 56.633 3.9618-1.062 5.4539-9.529c.7282-1.206 1.7149-1.976 2.9601-2.31 1.2451-.333 2.5223-.17 3.8315.49l5.7784 3.002 8.8428-13.41c.989-1.438 2.163-2.339 3.522-2.703.716-.192 1.45-.247 2.2-.165.74.045 1.455.298 2.145.76l14.807 9.984 3.962-1.061-7.249-27.0537c-1.345-5.0183-4.545-6.8501-9.601-5.4953l-42.3914 11.3587c-2.4149.6473-4.1296 1.7943-5.1442 3.4413-.9869 1.599-1.1468 3.643-.4795 6.133zm15.0374-18.588c-1.6979.455-3.3123.241-4.8432-.643-1.4932-.894-2.4623-2.171-2.9071-3.832-.455-1.698-.2594-3.307.5868-4.828.8738-1.568 2.1697-2.542 3.8879-2.922 1.6703-.407 3.2658-.188 4.7866.659 1.5209.846 2.5087 2.118 2.9637 3.816.4448 1.66.2253 3.255-.6586 4.786-.8838 1.531-2.1559 2.519-3.8161 2.964zm-32.6145 28.151c1.5873 5.923 4.2279 9.968 7.9218 12.132 3.7317 2.155 8.5217 2.448 14.3701.881l60.1067-16.105c5.848-1.567 9.83-4.212 11.947-7.933 2.155-3.732 2.438-8.559.851-14.483l-23.006-85.8583c-1.577-5.8861-4.236-9.9253-7.978-12.1175-3.704-2.2023-8.48-2.5199-14.329-.9528l-60.1059 16.1054c-5.8483 1.5671-9.8447 4.2353-11.9891 8.0047-2.1066 3.7592-2.3713 8.5819-.7941 14.468zm9.0667-2.612-22.9146-85.5183c-.7582-2.8298-.6038-5.1965.4633-7.1001 1.0948-1.9514 3.1137-3.3214 6.0567-4.11l59.2005-15.8628c2.943-.7885 5.358-.6065 7.244.5462 1.914 1.1049 3.249 3.0722 4.008 5.9021l22.914 85.5179c.759 2.83.585 5.202-.52 7.116-1.067 1.903-3.072 3.249-6.015 4.038l-59.2005 15.863c-2.9431.788-5.3715.63-7.2851-.475-1.8759-1.115-3.193-3.087-3.9513-5.917z" fill="#fff"/></svg>