<?xml version="1.0" encoding="utf-8"?>
<svg viewBox="0 0 128 128" fill="none" xmlns="http://www.w3.org/2000/svg">
  <path d="M11.6126 101.334H116.56C116.56 103.271 114.99 104.841 113.053 104.841H15.1192C13.1826 104.841 11.6126 103.271 11.6126 101.334Z" style="stroke: rgb(30, 64, 175); fill: rgb(30, 64, 175);" transform="matrix(1, 0, 0, 1, 8.881784197001252e-16, 0)"/>
  <rect width="110.907" height="5.507" x="8.546" y="96.202" fill="#fff" stroke-width="2" rx="2.753" style="stroke: rgb(30, 64, 175);" transform="matrix(1, 0, 0, 1, 8.881784197001252e-16, 0)"/>
  <rect width="21.318" height="69.841" x="12.215" y="25.145" fill="#fff" stroke-linecap="round" stroke-linejoin="round" stroke-width="2" rx="5" style="stroke: rgb(30, 64, 175);" transform="matrix(1, 0, 0, 1, 8.881784197001252e-16, 0)"/>
  <rect width="21.318" height="69.841" x="33.91" y="25.145" fill="#fff" stroke-linecap="round" stroke-linejoin="round" stroke-width="2" rx="5" style="stroke: rgb(30, 64, 175);" transform="matrix(1, 0, 0, 1, 8.881784197001252e-16, 0)"/>
  <ellipse cx="22.805" cy="65.92" stroke-width="2" rx="4.046" ry="5.854" style="stroke: rgb(30, 64, 175);" transform="matrix(1, 0, 0, 1, 8.881784197001252e-16, 0)"/>
  <ellipse cx="44.569" cy="65.92" stroke-width="2" rx="4.046" ry="5.854" style="stroke: rgb(30, 64, 175);" transform="matrix(1, 0, 0, 1, 8.881784197001252e-16, 0)"/>
  <path stroke-linecap="round" stroke-linejoin="round" stroke-width="2" d="M12.6458 38.4562H32.7914M12.6456 42.9331H32.7913M34.4965 38.4562H54.6421M34.4966 42.9331H54.6423" style="stroke: rgb(30, 64, 175);" transform="matrix(1, 0, 0, 1, 8.881784197001252e-16, 0)"/>
  <rect width="21.318" height="69.841" x="55.605" y="25.145" fill="#fff" stroke-linecap="round" stroke-linejoin="round" stroke-width="2" rx="5" style="stroke: rgb(30, 64, 175);" transform="matrix(1, 0, 0, 1, 8.881784197001252e-16, 0)"/>
  <ellipse cx="66.264" cy="65.92" stroke-width="2" rx="4.046" ry="5.854" style="stroke: rgb(30, 64, 175);" transform="matrix(1, 0, 0, 1, 8.881784197001252e-16, 0)"/>
  <path stroke-linecap="round" stroke-linejoin="round" stroke-width="2" d="M55.7784 38.4563H75.9241M55.7776 42.9331H75.9233" style="stroke: rgb(30, 64, 175);" transform="matrix(1, 0, 0, 1, 8.881784197001252e-16, 0)"/>
  <rect width="22.04" height="70.553" x="75.476" y="28.863" rx="5" transform="matrix(0.9659258262890684, -0.25881904510252074, 0.25881904510252074, 0.9659258262890684, -4.898512059606446, 20.518108616512453)" style="fill: rgb(30, 64, 175);"/>
  <ellipse cx="96.77" cy="65.719" stroke="#fff" stroke-width="2" rx="4.046" ry="5.854" transform="matrix(0.9659258262890684, -0.25881904510252074, 0.25881904510252074, 0.9659258262890684, -13.711971607585198, 27.28523880815326)" style="fill: rgb(30, 64, 175);"/>
  <path stroke="#fff" stroke-linecap="round" stroke-linejoin="round" stroke-width="2" d="M80.8373 41.5554L98.3261 36.8693M81.9963 45.8795L99.485 41.1934" transform="matrix(1, 0, 0, 1, 8.881784197001252e-16, 0)"/>
</svg>