<svg fill="none" height="180" viewBox="0 0 180 180" width="180" xmlns="http://www.w3.org/2000/svg"><path d="m43.056 47.7368c.6226-.1668.9955-.8127.9418-1.4656-.5402-6.7705-.9253-6.8493 5.8571-10.0619.6337-.3518.8934-.9673.7266-1.5899-.1668-.6225-.7147-1.0823-1.4242-1.0136-7.5518.5677-7.3295.2655-10.0881-5.7287-.2952-.6488-.8845-1.0369-1.5636-.8549-.6792.182-.9955.8127-.9833 1.5374.325 6.6462.895 6.7361-5.8723 10.0053-.5922.28-.8933.9673-.7265 1.5898.182.6792.7561 1.0107 1.4807.9985 7.378-.7637 6.9596-.2877 10.0164 5.6873.367.6902.9562 1.0783 1.6354.8963zm-11.407 30.7784c.9621-.2578 1.5725-1.1492 1.4845-2.1569-.7104-10.122-1.522-10.2078 8.4521-14.6395 1.0299-.458 1.4402-1.4171 1.1823-2.3793-.2578-.9621-1.0926-1.5877-2.2135-1.4693-10.884 1.0358-10.2392.4991-14.6092-8.339-.4427-.9732-1.3757-1.5118-2.3944-1.2389-1.0188.273-1.5159 1.1341-1.4542 2.2702.578 9.8541 1.4047 9.9965-8.4825 14.5263-.9732.4428-1.4401 1.4171-1.1823 2.3793.2882 1.0753 1.1493 1.5725 2.3268 1.439 10.6839-1.1036 10.0239-.6235 14.4808 8.3126.5145 1.0147 1.3342 1.5837 2.4096 1.2955zm36.7435 34.8008c1.3017-.349 1.9647-1.497 1.8574-2.803-1.6674-21.3907-.7086-24.3774 18.6555-32.4777 1.3129-.5338 2.0172-1.7537 1.6684-3.0555-.3488-1.3017-1.5687-2.006-2.9726-1.8119-20.7633 2.6518-23.9775.844-32.38-18.7424-.5186-1.2562-1.7385-1.9606-3.0403-1.6118-1.2451.3336-1.9646 1.497-1.8422 2.8594 1.7806 21.3607.7086 24.3777-18.6555 32.478-1.3129.5338-2.0172 1.7538-1.6684 3.0555s1.5688 2.0061 2.9726 1.8119c20.7633-2.6518 23.9623-.9006 32.38 18.7425.5186 1.256 1.6668 1.919 3.0251 1.555zm-3.2491-56.2717c1.771 3.8931 3.0457 6.1599 4.8853 7.3655 7.1157-5.3643 15.4182-9.4694 24.0776-11.7897 23.7147-6.3542 48.0887 2.8864 54.0787 25.2423 2.867 10.6969-.479 22.2086-7.299 31.6186-6.438-5.008-15.197-6.907-24.082-4.526-12.961 3.472-20.9325 12.888-18.2483 22.905.2578.963.6137 1.838 1.0675 2.626-22.6581 5.768-44.0164.087-49.673-21.024-.7583-2.83-.8899-5.585-.6516-8.318-1.9872-1.53-4.5048-1.644-8.9882-1.1706-.3049 3.8426.0168 7.7596 1.0784 11.7216 6.9608 25.978 33.1727 34.605 61.0182 27.144 2.151-.576 4.328-1.281 6.505-1.985 2.578.34 5.503.163 8.616-.671 8.49-2.275 16.455-6.957 23.004-13.08.397.804.697 1.694.939 2.6 1.82 6.792-.254 14.445-5.516 20.162-1.323 1.628-2.193 3.135-1.647 5.172.561 2.095 2.744 3.451 5.404 2.738 1.245-.334 1.89-.87 2.783-1.838 7.2-7.995 10.044-18.887 7.42-28.679-.697-2.603-1.689-4.946-2.99-7.084 9.056-11.708 13.511-26.5502 9.765-40.5297-7.219-26.9403-36.235-39.244-64.9303-31.5552-9.5649 2.5629-18.7274 7.0804-26.6163 12.9552zm41.9396 68.2277c-1.274-4.754 4.498-9.698 12.705-11.897 5.66-1.516 11.179-.387 15.354 2.741-5.637 5.453-12.588 9.621-19.889 11.577-4.075 1.092-7.442.296-8.17-2.421z" fill="#fff"/></svg>