<svg fill="none" height="180" viewBox="0 0 180 180" width="180" xmlns="http://www.w3.org/2000/svg"><path d="m52.1645 129.898c4.0625 4.063 8.3203 7.461 12.7734 10.196 4.4922 2.734 8.9063 4.922 13.2422 6.562 4.375 1.641 8.4375 2.871 12.1875 3.692 3.75.859 6.9141 1.406 9.4922 1.64 1.5232.157 2.6952-.136 3.5152-.879.86-.742 1.348-1.601 1.465-2.578.117-1.015-.156-2.011-.82-2.988-.664-.938-1.719-1.504-3.164-1.699-2.3438-.313-5.2149-.86-8.6134-1.641-3.3984-.781-7.0703-1.914-11.0156-3.398-3.9453-1.446-7.9297-3.36-11.9531-5.742-3.9844-2.422-7.7344-5.411-11.25-8.965-5.7422-5.743-10.293-12.051-13.6524-18.926-3.3593-6.9142-5.4492-13.9064-6.2695-20.9767s-.3125-13.7695 1.5234-20.0976c1.875-6.3672 5.1563-11.8946 9.8438-16.5821 3.7891-3.789 8.125-6.5625 13.0078-8.3203 4.8828-1.7968 10-2.7148 15.3516-2.7539 5.3515-.039 10.6836.6446 15.9961 2.0508 5.3125 1.4063 10.2933 3.3594 14.9413 5.8594l6.094-5.918c-5.703-3.3984-11.758-5.9765-18.1643-7.7344-6.4062-1.7968-12.832-2.6367-19.2773-2.5195-6.4062.1172-12.5195 1.2695-18.3398 3.457s-10.9766 5.5274-15.4688 10.0196c-4.2578 4.2578-7.5586 9.1797-9.9023 14.7656-2.3438 5.5469-3.711 11.4648-4.1016 17.7539-.3906 6.25.1758 12.6367 1.6992 19.1602 1.5625 6.4843 4.0821 12.852 7.5586 19.102 3.4766 6.25 7.9102 12.07 13.3008 17.46zm21.3281-17.519c3.8282 3.828 8.0469 7.148 12.6563 9.961 4.6094 2.812 9.375 5.019 14.2971 6.621 4.922 1.562 9.804 2.422 14.648 2.578 4.883.117 9.512-.586 13.887-2.109 4.375-1.563 8.281-4.063 11.719-7.5 3.515-3.555 6.054-7.676 7.617-12.364 1.562-4.726 2.187-9.7847 1.875-15.1754-.274-5.4296-1.445-10.9765-3.516-16.6406-2.07-5.664-5-11.1914-8.789-16.582l-5.976 5.9766c3.984 5.8984 6.836 11.8945 8.554 17.9882 1.758 6.0938 2.207 11.836 1.348 17.2262-.859 5.352-3.184 9.922-6.973 13.711-3.437 3.438-7.363 5.684-11.777 6.739-4.375 1.054-8.945 1.132-13.711.234-4.766-.938-9.4727-2.656-14.1211-5.156-4.6094-2.539-8.8672-5.664-12.7734-9.375zm7.6758-8.731 52.6176-52.5581-8.731-8.6719-52.5585 52.5-4.8047 11.191c-.2734.586-.1757 1.133.293 1.641.5078.508 1.0742.645 1.6992.41zm56.8946-56.7769 4.687-4.6875c1.133-1.1328 1.7-2.4219 1.7-3.8672.039-1.4453-.508-2.6953-1.641-3.75l-1.523-1.4062c-1.016-.9375-2.227-1.3867-3.633-1.3477-1.367 0-2.578.5274-3.633 1.5821l-4.629 4.746z" fill="#fff"/></svg>