<svg fill="none" height="180" viewBox="0 0 180 180" width="180" xmlns="http://www.w3.org/2000/svg"><path d="m53.2898 143.941 41.9951 11.253c9.2251 2.472 16.9721-1.761 19.3371-10.591l24.219-90.3853c2.366-8.8292-2.226-16.3683-11.451-18.8402l-41.9956-11.2526c-9.2253-2.4719-16.9716 1.7612-19.3373 10.5904l-24.2188 90.3857c-2.3658 8.829 2.2261 16.368 11.4515 18.84zm3.6301-8.793c-4.8108-1.289-6.7884-4.549-5.5752-9.077l23.4302-87.4426c1.2132-4.5278 4.5557-6.3619 9.3665-5.0729l39.6746 10.6308c4.754 1.2739 6.732 4.5336 5.519 9.0613l-23.431 87.4424c-1.213 4.528-4.555 6.362-9.3095 5.088zm25.2066-83.2062 5.3202 1.4255c1.2451.3337 2.4347-.2575 2.7684-1.5026l1.4558-5.4334c.3337-1.2451-.401-2.3519-1.6462-2.6855l-5.3201-1.4255c-1.2451-.3337-2.3216.2878-2.6552 1.533l-1.4559 5.4333c-.3336 1.2451.2879 2.3216 1.533 2.6552zm14.3191 3.8368 5.3764 1.4407c1.245.3336 2.435-.2575 2.769-1.5027l1.456-5.4333c.333-1.2451-.401-2.3519-1.647-2.6855l-5.3763-1.4407c-1.1885-.3185-2.265.303-2.5986 1.5481l-1.4559 5.4334c-.3336 1.2451.2879 2.3215 1.4764 2.64zm14.3754 3.852 5.32 1.4255c1.302.3488 2.435-.2575 2.769-1.5027l1.456-5.4333c.333-1.2451-.345-2.3367-1.646-2.6855l-5.321-1.4256c-1.188-.3184-2.265.303-2.598 1.5482l-1.456 5.4333c-.334 1.2451.288 2.3216 1.476 2.6401zm-32.8042 7.6491 5.3201 1.4255c1.2451.3336 2.4348-.2575 2.7532-1.4461l1.4711-5.4899c.3336-1.2451-.4011-2.3519-1.6462-2.6855l-5.3202-1.4256c-1.2451-.3336-2.3215.2879-2.6552 1.533l-1.471 5.4899c-.3185 1.1886.303 2.265 1.5482 2.5987zm14.3191 3.8367 5.3767 1.4407c1.2451.3337 2.4344-.2575 2.7534-1.446l1.471-5.49c.333-1.2451-.401-2.3519-1.646-2.6855l-5.3771-1.4407c-1.1885-.3185-2.2649.303-2.5986 1.5482l-1.471 5.4899c-.3185 1.1885.303 2.265 1.4916 2.5834zm14.3761 3.852 5.32 1.4255c1.301.3488 2.434-.2575 2.753-1.446l1.471-5.49c.334-1.2451-.344-2.3367-1.646-2.6855l-5.32-1.4255c-1.189-.3185-2.265.303-2.599 1.5481l-1.471 5.49c-.318 1.1885.303 2.2649 1.492 2.5834zm-32.8202 7.7057 5.3202 1.4255c1.2451.3337 2.4347-.2575 2.7684-1.5026l1.4558-5.4334c.3337-1.2451-.401-2.3519-1.6462-2.6855l-5.3201-1.4255c-1.2451-.3337-2.3216.2878-2.6552 1.533l-1.4559 5.4333c-.3336 1.2451.2879 2.3216 1.533 2.6552zm14.3191 3.8368 5.3768 1.4407c1.2451.3336 2.4347-.2575 2.7684-1.5027l1.4558-5.4333c.3337-1.2451-.401-2.3519-1.6462-2.6855l-5.3767-1.4407c-1.1885-.3185-2.265.303-2.5986 1.5481l-1.4559 5.4333c-.3336 1.2452.2879 2.3216 1.4764 2.6401zm-26.5119 41.6671 5.3202 1.426c1.2451.333 2.4347-.258 2.7532-1.446l1.471-5.49c.3185-1.189-.4162-2.296-1.6613-2.629l-5.3202-1.426c-1.2451-.333-2.3215.288-2.64 1.477l-1.471 5.49c-.3185 1.188.303 2.265 1.5481 2.598zm14.3191 3.837 5.3768 1.441c1.2451.333 2.4347-.258 2.7532-1.446l1.471-5.49c.3185-1.189-.4162-2.296-1.6613-2.629l-5.3768-1.441c-1.1885-.318-2.2649.303-2.5834 1.492l-1.471 5.49c-.3185 1.188.303 2.265 1.4915 2.583zm14.3757 3.852 5.3202 1.426c1.3017.348 2.4347-.258 2.7532-1.447l1.471-5.489c.3188-1.189-.3596-2.281-1.6613-2.629l-5.3202-1.426c-1.1885-.318-2.2649.303-2.5834 1.492l-1.471 5.49c-.3185 1.188.303 2.265 1.4915 2.583z" fill="#fff"/></svg>