<?xml version="1.0" encoding="utf-8"?>
<svg viewBox="23.398 143.25 337.566 81.432" xmlns="http://www.w3.org/2000/svg">
  <g fill="#1e40af" fill-opacity="1">
    <g transform="translate(28.90123, 204.23408)">
      <g>
        <path d="M 2.609375 -9.03125 C 2.609375 -11.863281 3.585938 -14.128906 5.546875 -15.828125 C 7.515625 -17.535156 10.941406 -18.738281 15.828125 -19.4375 L 26.234375 -20.875 C 26.234375 -22.21875 25.695312 -23.269531 24.625 -24.03125 C 23.5625 -24.800781 21.894531 -25.1875 19.625 -25.1875 C 17.53125 -25.1875 15.914062 -24.769531 14.78125 -23.9375 C 13.644531 -23.113281 13.078125 -21.9375 13.078125 -20.40625 L 3.265625 -20.40625 C 3.265625 -23.195312 3.984375 -25.582031 5.421875 -27.5625 C 6.867188 -29.550781 8.832031 -31.066406 11.3125 -32.109375 C 13.800781 -33.160156 16.570312 -33.6875 19.625 -33.6875 C 22.675781 -33.6875 25.488281 -33.175781 28.0625 -32.15625 C 30.632812 -31.132812 32.71875 -29.5 34.3125 -27.25 C 35.90625 -25 36.703125 -22.066406 36.703125 -18.453125 L 36.703125 -9.15625 L 41.484375 -9.15625 L 41.484375 0 L 34.21875 0 C 32.644531 0 31.429688 -0.421875 30.578125 -1.265625 C 29.734375 -2.117188 29.3125 -3.332031 29.3125 -4.90625 L 29.3125 -5.5625 L 30.9375 -9.484375 L 28.328125 -9.484375 C 27.929688 -7.648438 27.242188 -5.96875 26.265625 -4.4375 C 25.285156 -2.914062 23.878906 -1.6875 22.046875 -0.75 C 20.210938 0.1875 17.75 0.65625 14.65625 0.65625 C 12.082031 0.65625 10 0.316406 8.40625 -0.359375 C 6.8125 -1.035156 5.597656 -1.882812 4.765625 -2.90625 C 3.941406 -3.9375 3.375 -5.003906 3.0625 -6.109375 C 2.757812 -7.222656 2.609375 -8.195312 2.609375 -9.03125 Z M 13.078125 -10.984375 C 13.078125 -10.023438 13.457031 -9.367188 14.21875 -9.015625 C 14.988281 -8.671875 15.8125 -8.5 16.6875 -8.5 C 19.5625 -8.5 21.867188 -9.078125 23.609375 -10.234375 C 25.359375 -11.390625 26.234375 -12.972656 26.234375 -14.984375 L 17.796875 -13.796875 C 16.222656 -13.585938 15.039062 -13.304688 14.25 -12.953125 C 13.46875 -12.609375 13.078125 -11.953125 13.078125 -10.984375 Z M 13.078125 -10.984375 "/>
      </g>
    </g>
  </g>
  <g fill="#1e40af" fill-opacity="1">
    <g transform="translate(65.080293, 204.23408)">
      <g>
        <path d="M 41.078125 -48.078125 L 41.078125 0 L 30.625 0 L 30.625 -2.03125 L 32.578125 -7.921875 L 29.96875 -7.921875 C 29.394531 -6.472656 28.617188 -5.09375 27.640625 -3.78125 C 26.660156 -2.476562 25.316406 -1.410156 23.609375 -0.578125 C 21.910156 0.242188 19.6875 0.65625 16.9375 0.65625 C 13.757812 0.65625 11.113281 -0.128906 9 -1.703125 C 6.882812 -3.273438 5.289062 -5.367188 4.21875 -7.984375 C 3.144531 -10.597656 2.609375 -13.453125 2.609375 -16.546875 C 2.609375 -19.691406 3.144531 -22.5625 4.21875 -25.15625 C 5.289062 -27.75 6.882812 -29.816406 9 -31.359375 C 11.113281 -32.910156 13.757812 -33.6875 16.9375 -33.6875 C 19.6875 -33.6875 21.910156 -33.269531 23.609375 -32.4375 C 25.316406 -31.613281 26.660156 -30.554688 27.640625 -29.265625 C 28.617188 -27.984375 29.394531 -26.601562 29.96875 -25.125 L 32.578125 -25.125 L 30.625 -31.015625 L 30.625 -48.078125 Z M 30.625 -16.546875 C 30.625 -19.335938 29.867188 -21.363281 28.359375 -22.625 C 26.859375 -23.894531 24.6875 -24.53125 21.84375 -24.53125 C 19.050781 -24.53125 16.890625 -23.894531 15.359375 -22.625 C 13.835938 -21.363281 13.078125 -19.335938 13.078125 -16.546875 C 13.078125 -13.753906 13.835938 -11.710938 15.359375 -10.421875 C 16.890625 -9.140625 19.050781 -8.5 21.84375 -8.5 C 24.6875 -8.5 26.859375 -9.140625 28.359375 -10.421875 C 29.867188 -11.710938 30.625 -13.753906 30.625 -16.546875 Z M 30.625 -16.546875 "/>
      </g>
    </g>
  </g>
  <g fill="#1e40af" fill-opacity="1">
    <g transform="translate(104.137986, 204.23408)">
      <g>
        <path d="M 27.546875 -33.6875 C 31.773438 -33.6875 35.085938 -32.320312 37.484375 -29.59375 C 39.878906 -26.875 41.078125 -22.960938 41.078125 -17.859375 L 41.078125 0 L 30.625 0 L 30.625 -16.21875 C 30.625 -19.226562 30.117188 -21.363281 29.109375 -22.625 C 28.109375 -23.894531 26.34375 -24.53125 23.8125 -24.53125 C 21.9375 -24.53125 20.289062 -24.148438 18.875 -23.390625 C 17.457031 -22.628906 16.351562 -21.351562 15.5625 -19.5625 C 14.78125 -17.769531 14.390625 -15.328125 14.390625 -12.234375 L 14.390625 0 L 3.921875 0 L 3.921875 -48.078125 L 14.390625 -48.078125 L 14.390625 -29.046875 L 12.4375 -23.15625 L 15.046875 -23.15625 C 15.703125 -26.125 17.066406 -28.617188 19.140625 -30.640625 C 21.210938 -32.671875 24.015625 -33.6875 27.546875 -33.6875 Z M 27.546875 -33.6875 "/>
      </g>
    </g>
  </g>
  <g fill="#1e40af" fill-opacity="1">
    <g transform="translate(142.54145, 204.23408)">
      <g>
        <path d="M 16.15625 -36.3125 C 14.238281 -36.3125 12.734375 -36.753906 11.640625 -37.640625 C 10.554688 -38.535156 10.015625 -39.835938 10.015625 -41.546875 C 10.015625 -43.203125 10.554688 -44.488281 11.640625 -45.40625 C 12.734375 -46.320312 14.238281 -46.78125 16.15625 -46.78125 C 18.070312 -46.78125 19.597656 -46.320312 20.734375 -45.40625 C 21.867188 -44.488281 22.4375 -43.203125 22.4375 -41.546875 C 22.4375 -39.835938 21.867188 -38.535156 20.734375 -37.640625 C 19.597656 -36.753906 18.070312 -36.3125 16.15625 -36.3125 Z M 31.40625 0 L 2.609375 0 L 2.609375 -9.15625 L 11.96875 -9.15625 L 11.96875 -24.265625 L 3.921875 -23.875 L 3.921875 -33.03125 L 16.359375 -33.6875 C 18.191406 -33.78125 19.597656 -33.34375 20.578125 -32.375 C 21.554688 -31.414062 22.046875 -30.023438 22.046875 -28.203125 L 22.046875 -9.15625 L 31.40625 -9.15625 Z M 31.40625 0 "/>
      </g>
    </g>
  </g>
  <g fill="#1e40af" fill-opacity="1">
    <g transform="translate(169.299565, 204.23408)">
      <g>
        <path d="M 18.96875 -23.875 L 18.96875 -8.5 L 31.140625 -9.15625 L 31.140625 0 L 14.0625 0.65625 C 12.28125 0.695312 10.90625 0.226562 9.9375 -0.75 C 8.976562 -1.726562 8.5 -3.113281 8.5 -4.90625 L 8.5 -23.875 L 0.65625 -23.875 L 0.65625 -33.03125 L 8.5 -33.03125 L 8.5 -39.25 L 18.96875 -42.53125 L 18.96875 -33.03125 L 29.828125 -33.03125 L 29.828125 -23.875 Z M 18.96875 -23.875 "/>
      </g>
    </g>
  </g>
  <g fill="#1e40af" fill-opacity="1">
    <g transform="translate(196.450218, 204.23408)">
      <g>
        <path d="M 2.609375 -16.546875 C 2.609375 -20.390625 3.4375 -23.570312 5.09375 -26.09375 C 6.757812 -28.625 9.007812 -30.519531 11.84375 -31.78125 C 14.675781 -33.050781 17.816406 -33.6875 21.265625 -33.6875 C 24.710938 -33.6875 27.84375 -33.050781 30.65625 -31.78125 C 33.46875 -30.519531 35.703125 -28.625 37.359375 -26.09375 C 39.015625 -23.570312 39.84375 -20.390625 39.84375 -16.546875 C 39.84375 -12.710938 39.015625 -9.519531 37.359375 -6.96875 C 35.703125 -4.414062 33.46875 -2.503906 30.65625 -1.234375 C 27.84375 0.0234375 24.710938 0.65625 21.265625 0.65625 C 17.816406 0.65625 14.675781 0.0234375 11.84375 -1.234375 C 9.007812 -2.503906 6.757812 -4.414062 5.09375 -6.96875 C 3.4375 -9.519531 2.609375 -12.710938 2.609375 -16.546875 Z M 13.078125 -16.546875 C 13.078125 -13.753906 13.816406 -11.710938 15.296875 -10.421875 C 16.785156 -9.140625 18.773438 -8.5 21.265625 -8.5 C 23.703125 -8.5 25.660156 -9.140625 27.140625 -10.421875 C 28.628906 -11.710938 29.375 -13.753906 29.375 -16.546875 C 29.375 -19.296875 28.628906 -21.3125 27.140625 -22.59375 C 25.660156 -23.882812 23.703125 -24.53125 21.265625 -24.53125 C 18.773438 -24.53125 16.785156 -23.882812 15.296875 -22.59375 C 13.816406 -21.3125 13.078125 -19.296875 13.078125 -16.546875 Z M 13.078125 -16.546875 "/>
      </g>
    </g>
  </g>
  <g fill="#1e40af" fill-opacity="1">
    <g transform="translate(232.956396, 204.23408)">
      <g>
        <path d="M 48.15625 -33.6875 C 50.988281 -33.6875 53.195312 -32.929688 54.78125 -31.421875 C 56.375 -29.921875 57.5 -27.914062 58.15625 -25.40625 C 58.8125 -22.90625 59.140625 -20.171875 59.140625 -17.203125 L 59.140625 0 L 48.671875 0 L 48.671875 -16.484375 C 48.671875 -19.628906 48.332031 -21.753906 47.65625 -22.859375 C 46.976562 -23.972656 45.679688 -24.53125 43.765625 -24.53125 C 41.890625 -24.53125 40.4375 -24.003906 39.40625 -22.953125 C 38.382812 -21.910156 37.6875 -20.421875 37.3125 -18.484375 C 36.945312 -16.546875 36.765625 -14.242188 36.765625 -11.578125 L 36.765625 0 L 26.296875 0 L 26.296875 -16.484375 C 26.296875 -19.628906 25.957031 -21.753906 25.28125 -22.859375 C 24.601562 -23.972656 23.304688 -24.53125 21.390625 -24.53125 C 19.515625 -24.53125 18.0625 -24.003906 17.03125 -22.953125 C 16.007812 -21.910156 15.3125 -20.421875 14.9375 -18.484375 C 14.570312 -16.546875 14.390625 -14.242188 14.390625 -11.578125 L 14.390625 0 L 3.921875 0 L 3.921875 -33.03125 L 14.390625 -33.03125 L 14.390625 -29.703125 L 12.4375 -23.8125 L 15.046875 -23.8125 C 15.703125 -26.78125 16.859375 -29.164062 18.515625 -30.96875 C 20.171875 -32.78125 22.59375 -33.6875 25.78125 -33.6875 C 28.875 -33.6875 31.160156 -32.757812 32.640625 -30.90625 C 34.128906 -29.050781 35.113281 -26.6875 35.59375 -23.8125 L 37.484375 -23.8125 C 38.140625 -26.78125 39.285156 -29.164062 40.921875 -30.96875 C 42.554688 -32.78125 44.96875 -33.6875 48.15625 -33.6875 Z M 48.15625 -33.6875 "/>
      </g>
    </g>
  </g>
  <g fill="#1e40af" fill-opacity="1">
    <g transform="translate(289.41668, 204.23408)">
      <g>
        <path d="M 2.609375 -16.546875 C 2.609375 -20.390625 3.4375 -23.570312 5.09375 -26.09375 C 6.757812 -28.625 9.007812 -30.519531 11.84375 -31.78125 C 14.675781 -33.050781 17.816406 -33.6875 21.265625 -33.6875 C 24.710938 -33.6875 27.84375 -33.050781 30.65625 -31.78125 C 33.46875 -30.519531 35.703125 -28.625 37.359375 -26.09375 C 39.015625 -23.570312 39.84375 -20.390625 39.84375 -16.546875 C 39.84375 -12.710938 39.015625 -9.519531 37.359375 -6.96875 C 35.703125 -4.414062 33.46875 -2.503906 30.65625 -1.234375 C 27.84375 0.0234375 24.710938 0.65625 21.265625 0.65625 C 17.816406 0.65625 14.675781 0.0234375 11.84375 -1.234375 C 9.007812 -2.503906 6.757812 -4.414062 5.09375 -6.96875 C 3.4375 -9.519531 2.609375 -12.710938 2.609375 -16.546875 Z M 13.078125 -16.546875 C 13.078125 -13.753906 13.816406 -11.710938 15.296875 -10.421875 C 16.785156 -9.140625 18.773438 -8.5 21.265625 -8.5 C 23.703125 -8.5 25.660156 -9.140625 27.140625 -10.421875 C 28.628906 -11.710938 29.375 -13.753906 29.375 -16.546875 C 29.375 -19.296875 28.628906 -21.3125 27.140625 -22.59375 C 25.660156 -23.882812 23.703125 -24.53125 21.265625 -24.53125 C 18.773438 -24.53125 16.785156 -23.882812 15.296875 -22.59375 C 13.816406 -21.3125 13.078125 -19.296875 13.078125 -16.546875 Z M 13.078125 -16.546875 "/>
      </g>
    </g>
  </g>
  <g fill="#1e40af" fill-opacity="1">
    <g transform="translate(325.922859, 204.23408)">
      <g>
        <path d="M 11.703125 0.65625 C 9.484375 0.65625 7.738281 -0.0390625 6.46875 -1.4375 C 5.207031 -2.832031 4.578125 -4.554688 4.578125 -6.609375 C 4.578125 -8.609375 5.207031 -10.296875 6.46875 -11.671875 C 7.738281 -13.046875 9.484375 -13.734375 11.703125 -13.734375 C 13.890625 -13.734375 15.644531 -13.046875 16.96875 -11.671875 C 18.300781 -10.296875 18.96875 -8.609375 18.96875 -6.609375 C 18.96875 -4.554688 18.300781 -2.832031 16.96875 -1.4375 C 15.644531 -0.0390625 13.890625 0.65625 11.703125 0.65625 Z M 11.703125 0.65625 "/>
      </g>
    </g>
  </g>
</svg>